<?xml version="1.0" encoding="iso-8859-1"?>
<!-- Generator: Adobe Illustrator 18.0.0, SVG Export Plug-In . SVG Version: 6.00 Build 0)  -->
<!DOCTYPE svg PUBLIC "-//W3C//DTD SVG 1.1//EN" "http://www.w3.org/Graphics/SVG/1.1/DTD/svg11.dtd">
<svg version="1.1" id="_x34_" xmlns="http://www.w3.org/2000/svg" xmlns:xlink="http://www.w3.org/1999/xlink" x="0px" y="0px"
	 viewBox="0 0 512 512" style="enable-background:new 0 0 512 512;" xml:space="preserve">
<g>
	<g>
		<polygon style="fill:#3E3A39;" points="253.305,355.435 211.986,430.886 107.785,430.886 55.693,359.027 39.52,321.305 
			88.028,342.857 136.536,348.247 202.999,315.915 258.695,315.915 		"/>
		<polygon style="fill:#2D2D2D;" points="258.695,355.435 300.014,430.886 404.205,430.886 456.304,359.027 472.473,321.305 
			423.972,342.857 375.464,348.247 308.988,315.915 253.305,315.915 		"/>
	</g>
	<g>
		<polygon style="fill:#F3CA89;" points="256,111.118 202.102,241.361 167.971,241.361 150.003,290.765 178.751,337.467 
			256,351.844 		"/>
		<polygon style="fill:#EDBC75;" points="256,111.118 309.884,241.361 344.029,241.361 361.99,290.765 333.249,337.467 256,351.844 
					"/>
	</g>
	<g>
		<path style="fill:#3E3A39;" d="M213.785,55.421L0,48.239C0,48.239,14.374-64.939,213.785,55.421z"/>
		<path style="fill:#2D2D2D;" d="M298.215,55.421L512,48.239C512,48.239,497.623-64.939,298.215,55.421z"/>
	</g>
	<g>
		<path style="fill:none;" d="M441.813,95.971c-12.892-12.866-30.539-20.776-50.186-20.783
			c-19.639,0.007-37.287,7.917-50.173,20.783c-12.866,12.886-20.777,30.533-20.784,50.173c0.007,19.64,7.918,37.294,20.784,50.179
			c12.886,12.859,30.533,20.777,50.173,20.777c19.647,0,37.294-7.918,50.186-20.777c12.86-12.886,20.77-30.539,20.784-50.179
			C462.583,126.504,454.672,108.857,441.813,95.971z"/>
		<path style="fill:none;" d="M120.363,75.188c-19.64,0.007-37.287,7.917-50.176,20.783c-12.863,12.886-20.773,30.533-20.784,50.173
			c0.01,19.64,7.921,37.294,20.784,50.179c12.889,12.859,30.536,20.777,50.176,20.777c19.646,0,37.29-7.918,50.176-20.777
			c12.866-12.886,20.777-30.539,20.784-50.179c-0.007-19.64-7.918-37.287-20.784-50.173
			C157.654,83.105,140.009,75.195,120.363,75.188z"/>
		<path style="fill:#4A4949;" d="M219.957,141.657c-1.143-25.718-12.056-49.002-29.088-66.014
			c-18.002-18.015-43.021-29.209-70.505-29.196c-27.487-0.013-52.507,11.181-70.498,29.196
			C31.84,93.644,20.656,118.66,20.656,146.144c0,27.49,11.184,52.507,29.209,70.508c17.991,18.014,43.011,29.209,70.498,29.189
			c27.484,0.02,52.503-11.174,70.505-29.189c14.196-14.197,24.14-32.76,27.717-53.443H256v-21.553H219.957z M170.539,196.324
			c-12.886,12.859-30.53,20.777-50.176,20.777c-19.64,0-37.287-7.918-50.176-20.777c-12.863-12.886-20.773-30.539-20.784-50.179
			c0.01-19.64,7.921-37.287,20.784-50.173c12.889-12.866,30.536-20.776,50.176-20.783c19.646,0.007,37.29,7.917,50.176,20.783
			c12.866,12.886,20.777,30.533,20.784,50.173C191.316,165.785,183.405,183.438,170.539,196.324z"/>
		<path style="fill:#2D2D2D;" d="M462.135,75.643c-18.001-18.015-43.018-29.209-70.508-29.196
			c-27.483-0.013-52.5,11.181-70.495,29.196c-17.039,17.012-27.958,40.296-29.095,66.014H256v21.553h37.414
			c3.577,20.683,13.507,39.246,27.717,53.443c17.995,18.014,43.012,29.209,70.495,29.189c27.491,0.02,52.507-11.174,70.508-29.189
			c18.022-18.001,29.209-43.018,29.203-70.508C491.344,118.66,480.157,93.644,462.135,75.643z M441.813,196.324
			c-12.892,12.859-30.539,20.777-50.186,20.777c-19.639,0-37.287-7.918-50.173-20.777c-12.866-12.886-20.777-30.539-20.784-50.179
			c0.007-19.64,7.918-37.287,20.784-50.173c12.886-12.866,30.533-20.776,50.173-20.783c19.647,0.007,37.294,7.917,50.186,20.783
			c12.86,12.886,20.77,30.533,20.784,50.173C462.583,165.785,454.672,183.438,441.813,196.324z"/>
	</g>
</g>
</svg>
